<mxfile host="Electron" agent="Mozilla/5.0 (Windows NT 10.0; Win64; x64) AppleWebKit/537.36 (KHTML, like Gecko) draw.io/24.7.17 Chrome/128.0.6613.36 Electron/32.0.1 Safari/537.36" version="24.7.17">
  <diagram name="Page-1" id="2cc2dc42-3aac-f2a9-1cec-7a8b7cbee084">
    <mxGraphModel dx="3187" dy="1858" grid="1" gridSize="10" guides="1" tooltips="1" connect="1" arrows="1" fold="1" page="1" pageScale="1" pageWidth="1100" pageHeight="850" background="none" math="0" shadow="0">
      <root>
        <mxCell id="0" />
        <mxCell id="1" parent="0" />
        <mxCell id="kEUkBG7BpFwua_Kbx91v-36" value="Поиск по дате (/search?date=&quot;2024.10.08&quot;)" style="strokeWidth=1;shadow=0;dashed=0;align=center;html=1;shape=mxgraph.mockup.containers.window;align=left;verticalAlign=top;spacingLeft=8;strokeColor2=#008cff;strokeColor3=#c4c4c4;fontColor=#666666;mainText=;fontSize=17;labelBackgroundColor=none;whiteSpace=wrap;" vertex="1" parent="1">
          <mxGeometry x="1120" y="40" width="969.74" height="670" as="geometry" />
        </mxCell>
        <mxCell id="kEUkBG7BpFwua_Kbx91v-37" value="&lt;font style=&quot;font-size: 44px;&quot;&gt;Курс валют&lt;/font&gt;" style="text;html=1;align=center;verticalAlign=middle;resizable=0;points=[];autosize=1;strokeColor=none;fillColor=none;" vertex="1" parent="1">
          <mxGeometry x="1160" y="111" width="250" height="70" as="geometry" />
        </mxCell>
        <mxCell id="kEUkBG7BpFwua_Kbx91v-50" value="" style="rounded=1;whiteSpace=wrap;html=1;" vertex="1" parent="1">
          <mxGeometry x="830" y="900" width="160" height="630" as="geometry" />
        </mxCell>
        <mxCell id="kEUkBG7BpFwua_Kbx91v-51" value="USD/RUB&lt;br&gt;89.8999" style="rounded=1;whiteSpace=wrap;html=1;" vertex="1" parent="1">
          <mxGeometry x="850" y="920" width="120" height="60" as="geometry" />
        </mxCell>
        <mxCell id="kEUkBG7BpFwua_Kbx91v-52" value="USD/RUB&lt;br&gt;89.8999" style="rounded=1;whiteSpace=wrap;html=1;" vertex="1" parent="1">
          <mxGeometry x="850" y="1000" width="120" height="60" as="geometry" />
        </mxCell>
        <mxCell id="kEUkBG7BpFwua_Kbx91v-53" value="USD/RUB&lt;br&gt;89.8999" style="rounded=1;whiteSpace=wrap;html=1;" vertex="1" parent="1">
          <mxGeometry x="850" y="1080" width="120" height="60" as="geometry" />
        </mxCell>
        <mxCell id="kEUkBG7BpFwua_Kbx91v-54" value="USD/RUB&lt;br&gt;89.8999" style="rounded=1;whiteSpace=wrap;html=1;" vertex="1" parent="1">
          <mxGeometry x="850" y="1160" width="120" height="60" as="geometry" />
        </mxCell>
        <mxCell id="kEUkBG7BpFwua_Kbx91v-55" value="EUR/RUB&lt;br&gt;106.0755" style="rounded=1;whiteSpace=wrap;html=1;fillColor=#f5f5f5;strokeColor=#666666;fontColor=#333333;" vertex="1" parent="1">
          <mxGeometry x="850" y="1240" width="120" height="60" as="geometry" />
        </mxCell>
        <mxCell id="kEUkBG7BpFwua_Kbx91v-56" value="USD/RUB&lt;br&gt;89.8999" style="rounded=1;whiteSpace=wrap;html=1;" vertex="1" parent="1">
          <mxGeometry x="850" y="1320" width="120" height="60" as="geometry" />
        </mxCell>
        <mxCell id="kEUkBG7BpFwua_Kbx91v-57" value="USD/RUB&lt;br&gt;89.8999" style="rounded=1;whiteSpace=wrap;html=1;" vertex="1" parent="1">
          <mxGeometry x="850" y="1400" width="120" height="60" as="geometry" />
        </mxCell>
        <mxCell id="kEUkBG7BpFwua_Kbx91v-58" value="скролл ниже" style="rounded=1;whiteSpace=wrap;html=1;" vertex="1" parent="1">
          <mxGeometry x="850" y="1480" width="120" height="60" as="geometry" />
        </mxCell>
        <mxCell id="kEUkBG7BpFwua_Kbx91v-59" value="&lt;font style=&quot;font-size: 17px;&quot;&gt;Найти по дате&lt;/font&gt;" style="text;html=1;align=center;verticalAlign=middle;resizable=0;points=[];autosize=1;strokeColor=none;fillColor=none;" vertex="1" parent="1">
          <mxGeometry x="1149" y="183" width="140" height="30" as="geometry" />
        </mxCell>
        <mxCell id="kEUkBG7BpFwua_Kbx91v-60" value="&lt;font style=&quot;font-size: 17px;&quot;&gt;или по коду&lt;/font&gt;" style="text;html=1;align=center;verticalAlign=middle;resizable=0;points=[];autosize=1;strokeColor=none;fillColor=none;" vertex="1" parent="1">
          <mxGeometry x="1357" y="183" width="120" height="30" as="geometry" />
        </mxCell>
        <mxCell id="kEUkBG7BpFwua_Kbx91v-61" value="&lt;font color=&quot;#a8a8a8&quot;&gt;EUR&lt;/font&gt;" style="rounded=1;whiteSpace=wrap;html=1;" vertex="1" parent="1">
          <mxGeometry x="1474" y="188" width="80" height="20" as="geometry" />
        </mxCell>
        <mxCell id="kEUkBG7BpFwua_Kbx91v-62" value="2024.10.08" style="rounded=1;whiteSpace=wrap;html=1;strokeColor=#141414;" vertex="1" parent="1">
          <mxGeometry x="1282" y="188" width="80" height="20" as="geometry" />
        </mxCell>
        <mxCell id="kEUkBG7BpFwua_Kbx91v-63" value="" style="rounded=1;whiteSpace=wrap;html=1;" vertex="1" parent="1">
          <mxGeometry x="1160" y="230" width="140" height="450" as="geometry" />
        </mxCell>
        <mxCell id="kEUkBG7BpFwua_Kbx91v-65" value="Главная (/)" style="strokeWidth=1;shadow=0;dashed=0;align=center;html=1;shape=mxgraph.mockup.containers.window;align=left;verticalAlign=top;spacingLeft=8;strokeColor2=#008cff;strokeColor3=#c4c4c4;fontColor=#666666;mainText=;fontSize=17;labelBackgroundColor=none;whiteSpace=wrap;" vertex="1" parent="1">
          <mxGeometry x="40" y="40" width="969.74" height="670" as="geometry" />
        </mxCell>
        <mxCell id="kEUkBG7BpFwua_Kbx91v-66" value="&lt;font style=&quot;font-size: 44px;&quot;&gt;Курс валют&lt;/font&gt;" style="text;html=1;align=center;verticalAlign=middle;resizable=0;points=[];autosize=1;strokeColor=none;fillColor=none;" vertex="1" parent="1">
          <mxGeometry x="80" y="111" width="250" height="70" as="geometry" />
        </mxCell>
        <mxCell id="kEUkBG7BpFwua_Kbx91v-67" value="&lt;font style=&quot;font-size: 17px;&quot;&gt;Найти по дате&lt;/font&gt;" style="text;html=1;align=center;verticalAlign=middle;resizable=0;points=[];autosize=1;strokeColor=none;fillColor=none;" vertex="1" parent="1">
          <mxGeometry x="69" y="183" width="140" height="30" as="geometry" />
        </mxCell>
        <mxCell id="kEUkBG7BpFwua_Kbx91v-68" value="&lt;font style=&quot;font-size: 17px;&quot;&gt;или по коду&lt;/font&gt;" style="text;html=1;align=center;verticalAlign=middle;resizable=0;points=[];autosize=1;strokeColor=none;fillColor=none;" vertex="1" parent="1">
          <mxGeometry x="277" y="183" width="120" height="30" as="geometry" />
        </mxCell>
        <mxCell id="kEUkBG7BpFwua_Kbx91v-69" value="&lt;font color=&quot;#a8a8a8&quot;&gt;EUR&lt;/font&gt;" style="rounded=1;whiteSpace=wrap;html=1;" vertex="1" parent="1">
          <mxGeometry x="394" y="188" width="80" height="20" as="geometry" />
        </mxCell>
        <mxCell id="kEUkBG7BpFwua_Kbx91v-70" value="&lt;font color=&quot;#a8a8a8&quot;&gt;1970.01.01&lt;/font&gt;" style="rounded=1;whiteSpace=wrap;html=1;" vertex="1" parent="1">
          <mxGeometry x="202" y="188" width="80" height="20" as="geometry" />
        </mxCell>
        <mxCell id="kEUkBG7BpFwua_Kbx91v-71" value="" style="rounded=1;whiteSpace=wrap;html=1;" vertex="1" parent="1">
          <mxGeometry x="80" y="230" width="140" height="450" as="geometry" />
        </mxCell>
        <mxCell id="kEUkBG7BpFwua_Kbx91v-79" value="" style="verticalLabelPosition=bottom;shadow=0;dashed=0;align=center;html=1;verticalAlign=top;strokeWidth=1;shape=mxgraph.mockup.navigation.scrollBar;strokeColor=#999999;barPos=20;fillColor2=#99ddff;strokeColor2=none;direction=north;" vertex="1" parent="1">
          <mxGeometry x="1160" y="230" width="20" height="450" as="geometry" />
        </mxCell>
        <mxCell id="kEUkBG7BpFwua_Kbx91v-72" value="USD/RUB&lt;br&gt;89.8999" style="rounded=1;whiteSpace=wrap;html=1;" vertex="1" parent="1">
          <mxGeometry x="1170" y="240" width="120" height="60" as="geometry" />
        </mxCell>
        <mxCell id="kEUkBG7BpFwua_Kbx91v-73" value="USD/RUB&lt;br&gt;89.8999" style="rounded=1;whiteSpace=wrap;html=1;" vertex="1" parent="1">
          <mxGeometry x="1170" y="320" width="120" height="60" as="geometry" />
        </mxCell>
        <mxCell id="kEUkBG7BpFwua_Kbx91v-74" value="USD/RUB&lt;br&gt;89.8999" style="rounded=1;whiteSpace=wrap;html=1;" vertex="1" parent="1">
          <mxGeometry x="1170" y="400" width="120" height="60" as="geometry" />
        </mxCell>
        <mxCell id="kEUkBG7BpFwua_Kbx91v-75" value="USD/RUB&lt;br&gt;89.8999" style="rounded=1;whiteSpace=wrap;html=1;" vertex="1" parent="1">
          <mxGeometry x="1170" y="480" width="120" height="60" as="geometry" />
        </mxCell>
        <mxCell id="kEUkBG7BpFwua_Kbx91v-76" value="EUR/RUB&lt;br&gt;106.0755" style="rounded=1;whiteSpace=wrap;html=1;" vertex="1" parent="1">
          <mxGeometry x="1170" y="560" width="120" height="60" as="geometry" />
        </mxCell>
        <mxCell id="kEUkBG7BpFwua_Kbx91v-77" value="USD/RUB&lt;br&gt;89.8999" style="rounded=1;whiteSpace=wrap;html=1;" vertex="1" parent="1">
          <mxGeometry x="1170" y="640" width="120" height="60" as="geometry" />
        </mxCell>
        <mxCell id="kEUkBG7BpFwua_Kbx91v-80" value="Отображение (/eur?date=&quot;2024.10.08&quot;)" style="strokeWidth=1;shadow=0;dashed=0;align=center;html=1;shape=mxgraph.mockup.containers.window;align=left;verticalAlign=top;spacingLeft=8;strokeColor2=#008cff;strokeColor3=#c4c4c4;fontColor=#666666;mainText=;fontSize=17;labelBackgroundColor=none;whiteSpace=wrap;" vertex="1" parent="1">
          <mxGeometry x="2120" y="40" width="969.74" height="670" as="geometry" />
        </mxCell>
        <mxCell id="kEUkBG7BpFwua_Kbx91v-81" value="&lt;font style=&quot;font-size: 44px;&quot;&gt;Курс валют&lt;/font&gt;" style="text;html=1;align=center;verticalAlign=middle;resizable=0;points=[];autosize=1;strokeColor=none;fillColor=none;" vertex="1" parent="1">
          <mxGeometry x="2149" y="99" width="250" height="70" as="geometry" />
        </mxCell>
        <mxCell id="kEUkBG7BpFwua_Kbx91v-82" value="&lt;font style=&quot;font-size: 17px;&quot;&gt;Найти по дате&lt;/font&gt;" style="text;html=1;align=center;verticalAlign=middle;resizable=0;points=[];autosize=1;strokeColor=none;fillColor=none;" vertex="1" parent="1">
          <mxGeometry x="2149" y="156" width="140" height="30" as="geometry" />
        </mxCell>
        <mxCell id="kEUkBG7BpFwua_Kbx91v-83" value="&lt;font style=&quot;font-size: 17px;&quot;&gt;или по коду&lt;/font&gt;" style="text;html=1;align=center;verticalAlign=middle;resizable=0;points=[];autosize=1;strokeColor=none;fillColor=none;" vertex="1" parent="1">
          <mxGeometry x="2357" y="156" width="120" height="30" as="geometry" />
        </mxCell>
        <mxCell id="kEUkBG7BpFwua_Kbx91v-84" value="&lt;font color=&quot;#a8a8a8&quot;&gt;EUR&lt;/font&gt;" style="rounded=1;whiteSpace=wrap;html=1;" vertex="1" parent="1">
          <mxGeometry x="2474" y="161" width="80" height="20" as="geometry" />
        </mxCell>
        <mxCell id="kEUkBG7BpFwua_Kbx91v-85" value="2024.10.08" style="rounded=1;whiteSpace=wrap;html=1;strokeColor=#141414;" vertex="1" parent="1">
          <mxGeometry x="2282" y="161" width="80" height="20" as="geometry" />
        </mxCell>
        <mxCell id="kEUkBG7BpFwua_Kbx91v-86" value="" style="rounded=1;whiteSpace=wrap;html=1;" vertex="1" parent="1">
          <mxGeometry x="2160" y="192" width="140" height="498" as="geometry" />
        </mxCell>
        <mxCell id="kEUkBG7BpFwua_Kbx91v-87" value="" style="verticalLabelPosition=bottom;shadow=0;dashed=0;align=center;html=1;verticalAlign=top;strokeWidth=1;shape=mxgraph.mockup.navigation.scrollBar;strokeColor=#999999;barPos=20;fillColor2=#99ddff;strokeColor2=none;direction=north;" vertex="1" parent="1">
          <mxGeometry x="2160" y="192" width="20" height="498" as="geometry" />
        </mxCell>
        <mxCell id="kEUkBG7BpFwua_Kbx91v-88" value="USD/RUB&lt;br&gt;89.8999" style="rounded=1;whiteSpace=wrap;html=1;" vertex="1" parent="1">
          <mxGeometry x="2170" y="202" width="120" height="60" as="geometry" />
        </mxCell>
        <mxCell id="kEUkBG7BpFwua_Kbx91v-89" value="USD/RUB&lt;br&gt;89.8999" style="rounded=1;whiteSpace=wrap;html=1;" vertex="1" parent="1">
          <mxGeometry x="2170" y="282" width="120" height="60" as="geometry" />
        </mxCell>
        <mxCell id="kEUkBG7BpFwua_Kbx91v-90" value="USD/RUB&lt;br&gt;89.8999" style="rounded=1;whiteSpace=wrap;html=1;" vertex="1" parent="1">
          <mxGeometry x="2170" y="362" width="120" height="60" as="geometry" />
        </mxCell>
        <mxCell id="kEUkBG7BpFwua_Kbx91v-91" value="USD/RUB&lt;br&gt;89.8999" style="rounded=1;whiteSpace=wrap;html=1;" vertex="1" parent="1">
          <mxGeometry x="2170" y="442" width="120" height="60" as="geometry" />
        </mxCell>
        <mxCell id="kEUkBG7BpFwua_Kbx91v-92" value="EUR/RUB&lt;br&gt;106.0755" style="rounded=1;whiteSpace=wrap;html=1;fillColor=#d5e8d4;strokeColor=#82b366;" vertex="1" parent="1">
          <mxGeometry x="2170" y="522" width="120" height="60" as="geometry" />
        </mxCell>
        <mxCell id="kEUkBG7BpFwua_Kbx91v-93" value="USD/RUB&lt;br&gt;89.8999" style="rounded=1;whiteSpace=wrap;html=1;" vertex="1" parent="1">
          <mxGeometry x="2170" y="602" width="120" height="60" as="geometry" />
        </mxCell>
        <mxCell id="kEUkBG7BpFwua_Kbx91v-94" value="&lt;font style=&quot;font-size: 17px;&quot;&gt;EUR/RUB = 106.5555&lt;/font&gt;" style="text;html=1;align=center;verticalAlign=middle;resizable=0;points=[];autosize=1;strokeColor=none;fillColor=none;" vertex="1" parent="1">
          <mxGeometry x="2324" y="251" width="190" height="30" as="geometry" />
        </mxCell>
        <mxCell id="kEUkBG7BpFwua_Kbx91v-95" value="&lt;font style=&quot;font-size: 36px;&quot;&gt;Евро / Российский рубль&lt;/font&gt;" style="text;html=1;align=center;verticalAlign=middle;resizable=0;points=[];autosize=1;strokeColor=none;fillColor=none;" vertex="1" parent="1">
          <mxGeometry x="2319" y="201" width="440" height="60" as="geometry" />
        </mxCell>
        <mxCell id="kEUkBG7BpFwua_Kbx91v-96" value="" style="verticalLabelPosition=bottom;shadow=0;dashed=0;align=center;html=1;verticalAlign=top;strokeWidth=1;shape=mxgraph.mockup.graphics.lineChart;strokeColor=none;strokeColor2=#666666;strokeColor3=#008cff;strokeColor4=#dddddd;" vertex="1" parent="1">
          <mxGeometry x="2330" y="290" width="680" height="340" as="geometry" />
        </mxCell>
        <mxCell id="kEUkBG7BpFwua_Kbx91v-97" value="дата1" style="rounded=1;whiteSpace=wrap;html=1;" vertex="1" parent="1">
          <mxGeometry x="2690" y="642" width="40" height="20" as="geometry" />
        </mxCell>
        <mxCell id="kEUkBG7BpFwua_Kbx91v-98" value="дата2" style="rounded=1;whiteSpace=wrap;html=1;" vertex="1" parent="1">
          <mxGeometry x="2780" y="642" width="40" height="20" as="geometry" />
        </mxCell>
        <mxCell id="kEUkBG7BpFwua_Kbx91v-99" value="дата3" style="rounded=1;whiteSpace=wrap;html=1;" vertex="1" parent="1">
          <mxGeometry x="2860" y="642" width="40" height="20" as="geometry" />
        </mxCell>
        <mxCell id="kEUkBG7BpFwua_Kbx91v-100" value="дата4" style="rounded=1;whiteSpace=wrap;html=1;" vertex="1" parent="1">
          <mxGeometry x="2940" y="642" width="40" height="20" as="geometry" />
        </mxCell>
      </root>
    </mxGraphModel>
  </diagram>
</mxfile>
